<svg width="24" height="21" viewBox="0 0 24 21" fill="none" xmlns="http://www.w3.org/2000/svg">
<path fill-rule="evenodd" clip-rule="evenodd" d="M9.78307 0.023936C10.2615 -0.0823798 10.7465 0.173694 10.9285 0.628732L12 3.30754L13.0715 0.628732C13.2535 0.173694 13.7385 -0.0823798 14.2169 0.023936L23.2169 2.02394C23.5033 2.08758 23.7473 2.27377 23.8843 2.5332C24.0213 2.79263 24.0374 3.09912 23.9285 3.37151L22.077 8.00012L23.9285 12.6287C24.0374 12.9011 24.0213 13.2076 23.8843 13.467C23.7473 13.7265 23.5033 13.9127 23.2169 13.9763L22 14.2467V18C22 18.4687 21.6745 18.8745 21.2169 18.9762L12.2175 20.9761C12.2027 20.9794 12.1872 20.9824 12.1724 20.985C12.0448 21.0074 11.9126 21.005 11.7831 20.9762L2.78307 18.9762C2.32553 18.8745 2 18.4687 2 18V14.2467L0.78307 13.9763C0.496683 13.9127 0.252688 13.7265 0.115704 13.467C-0.0212797 13.2076 -0.0374322 12.9011 0.071524 12.6287L1.92297 8.00012L0.071524 3.37151C-0.0374322 3.09912 -0.0212797 2.79263 0.115704 2.5332C0.252688 2.27377 0.496683 2.08758 0.78307 2.02394L9.78307 0.023936ZM11 15.1927L10.9285 15.3715C10.7465 15.8266 10.2615 16.0826 9.78307 15.9763L4 14.6912V17.1978L11 18.7534V15.1927ZM13 18.7534V15.1927L13.0715 15.3715C13.2535 15.8266 13.7385 16.0826 14.2169 15.9763L20 14.6912V17.1978L13 18.7534ZM7.61003 8.00007L12 8.97561L16.39 8.00007L12 7.02452L7.61003 8.00007ZM2.36542 3.72109L3.6128 6.83955L10.6346 5.27916L9.3872 2.1607L2.36542 3.72109ZM14.6128 2.1607L13.3654 5.27916L20.3872 6.83955L21.6346 3.72109L14.6128 2.1607ZM13.3654 10.7211L14.6128 13.8396L21.6346 12.2792L20.3872 9.1607L13.3654 10.7211ZM2.36542 12.2792L3.6128 9.1607L10.6346 10.7211L9.3872 13.8396L2.36542 12.2792Z" fill="#7F713E"/>
</svg>
