<svg width="22" height="16" viewBox="0 0 22 16" fill="none" xmlns="http://www.w3.org/2000/svg">
<path d="M9 5C9 5.55228 8.55229 6 8 6C7.44772 6 7 5.55228 7 5C7 4.44772 7.44772 4 8 4C8.55229 4 9 4.44772 9 5Z" fill="#7F713E"/>
<path d="M14 6C14.5523 6 15 5.55228 15 5C15 4.44772 14.5523 4 14 4C13.4477 4 13 4.44772 13 5C13 5.55228 13.4477 6 14 6Z" fill="#7F713E"/>
<path fill-rule="evenodd" clip-rule="evenodd" d="M3 0C2.44772 0 2 0.447715 2 1V6H1C0.447715 6 0 6.44772 0 7V15C0 15.5523 0.447715 16 1 16H21C21.5523 16 22 15.5523 22 15V7C22 6.44772 21.5523 6 21 6H20V1C20 0.447715 19.5523 0 19 0H3ZM18 2H4V6H5C5.55228 6 6 6.44772 6 7V9H16V7C16 6.44772 16.4477 6 17 6H18V2ZM2 8V14H4V8H2ZM16 14H6V11H16V14ZM18 14V8H20V14H18Z" fill="#7F713E"/>
</svg>
