<svg width="22" height="18" viewBox="0 0 22 18" fill="none" xmlns="http://www.w3.org/2000/svg">
<path d="M14 5.25C14.4142 5.25 14.75 4.91421 14.75 4.5C14.75 4.08579 14.4142 3.75 14 3.75C13.5858 3.75 13.25 4.08579 13.25 4.5C13.25 4.91421 13.5858 5.25 14 5.25Z" fill="#7F713E"/>
<path d="M17 5.25C17.4142 5.25 17.75 4.91421 17.75 4.5C17.75 4.08579 17.4142 3.75 17 3.75C16.5858 3.75 16.25 4.08579 16.25 4.5C16.25 4.91421 16.5858 5.25 17 5.25Z" fill="#7F713E"/>
<path d="M14.75 7.5C14.75 7.91421 14.4142 8.25 14 8.25C13.5858 8.25 13.25 7.91421 13.25 7.5C13.25 7.08579 13.5858 6.75 14 6.75C14.4142 6.75 14.75 7.08579 14.75 7.5Z" fill="#7F713E"/>
<path d="M17 8.25C17.4142 8.25 17.75 7.91421 17.75 7.5C17.75 7.08579 17.4142 6.75 17 6.75C16.5858 6.75 16.25 7.08579 16.25 7.5C16.25 7.91421 16.5858 8.25 17 8.25Z" fill="#7F713E"/>
<path d="M14.75 10.5C14.75 10.9142 14.4142 11.25 14 11.25C13.5858 11.25 13.25 10.9142 13.25 10.5C13.25 10.0858 13.5858 9.75 14 9.75C14.4142 9.75 14.75 10.0858 14.75 10.5Z" fill="#7F713E"/>
<path d="M17 11.25C17.4142 11.25 17.75 10.9142 17.75 10.5C17.75 10.0858 17.4142 9.75 17 9.75C16.5858 9.75 16.25 10.0858 16.25 10.5C16.25 10.9142 16.5858 11.25 17 11.25Z" fill="#7F713E"/>
<path d="M14.75 13.5C14.75 13.9142 14.4142 14.25 14 14.25C13.5858 14.25 13.25 13.9142 13.25 13.5C13.25 13.0858 13.5858 12.75 14 12.75C14.4142 12.75 14.75 13.0858 14.75 13.5Z" fill="#7F713E"/>
<path d="M17 14.25C17.4142 14.25 17.75 13.9142 17.75 13.5C17.75 13.0858 17.4142 12.75 17 12.75C16.5858 12.75 16.25 13.0858 16.25 13.5C16.25 13.9142 16.5858 14.25 17 14.25Z" fill="#7F713E"/>
<path fill-rule="evenodd" clip-rule="evenodd" d="M0.29292 0.29292C0.560753 0.0250881 0.95692 -0.0684344 1.31625 0.0513438L4.05435 0.964043C4.17625 0.937653 4.33522 0.903763 4.52451 0.864558C4.98454 0.769283 5.62549 0.642244 6.34991 0.515085C7.77956 0.264141 9.60332 2.7155e-05 11 2.7155e-05C12.3967 2.7155e-05 14.2205 0.264141 15.6501 0.515085C16.3746 0.642244 17.0155 0.769283 17.4755 0.864558C17.6648 0.903763 17.8238 0.937653 17.9457 0.964043L20.6838 0.0513438C21.0431 -0.0684344 21.4393 0.0250881 21.7071 0.29292C21.975 0.560753 22.0685 0.95692 21.9487 1.31625L21.0497 4.01327C21.0697 4.08022 21.0922 4.15663 21.1167 4.24136C21.2133 4.5745 21.3421 5.03879 21.4711 5.56401C21.7225 6.58716 22 7.93921 22 9.00003C22 10.0608 21.7225 11.4129 21.4711 12.436C21.3421 12.9613 21.2133 13.4256 21.1167 13.7587C21.0922 13.8434 21.0697 13.9198 21.0497 13.9868L21.9487 16.6838C22.0685 17.0431 21.975 17.4393 21.7071 17.7071C21.4393 17.975 21.0431 18.0685 20.6838 17.9487L17.9454 17.0359C17.823 17.0623 17.6633 17.0963 17.4731 17.1356C17.012 17.2309 16.3698 17.3579 15.6446 17.485C14.2136 17.7359 12.3897 18 11 18C9.61038 18 7.78646 17.7359 6.35549 17.485C5.63027 17.3579 4.98806 17.2309 4.527 17.1356C4.33673 17.0963 4.177 17.0623 4.05466 17.0359L1.31625 17.9487C0.95692 18.0685 0.560753 17.975 0.29292 17.7071C0.0250881 17.4393 -0.0684344 17.0431 0.0513438 16.6838L0.950094 13.9875C0.930276 13.9214 0.907961 13.846 0.883652 13.7626C0.787027 13.4307 0.658153 12.968 0.529038 12.4437C0.277368 11.4218 2.71531e-05 10.0701 2.71531e-05 9.00003C2.71531e-05 7.92992 0.277368 6.57827 0.529038 5.55634C0.658153 5.03206 0.787027 4.56934 0.883652 4.2375C0.907961 4.15401 0.930276 4.07865 0.950094 4.01251L0.0513438 1.31625C-0.0684344 0.95692 0.0250881 0.560753 0.29292 0.29292ZM2.95234 4.30514L2.95032 4.31149L2.94284 4.3352C2.93612 4.35661 2.926 4.38905 2.91297 4.43145C2.88691 4.51629 2.84927 4.64083 2.8039 4.79664C2.71303 5.10873 2.5919 5.54373 2.47102 6.03459C2.22269 7.04295 2.00003 8.19131 2.00003 9.00003C2.00003 9.80875 2.22269 10.9571 2.47102 11.9655C2.5919 12.4563 2.71303 12.8913 2.8039 13.2034C2.84927 13.3592 2.88691 13.4838 2.91297 13.5686C2.926 13.611 2.93612 13.6434 2.94284 13.6649L2.95032 13.6886L2.95234 13.6949C3.0171 13.8971 3.01585 14.1148 2.94871 14.3163L2.58117 15.4189L3.6838 15.0513C3.85714 14.9936 4.04299 14.9844 4.22118 15.0248L4.232 15.0272L4.26734 15.0351C4.29885 15.0421 4.34598 15.0525 4.40723 15.0659C4.52974 15.0926 4.70858 15.1309 4.93165 15.177C5.37815 15.2692 6.00002 15.3922 6.70084 15.515C7.75954 15.7006 8.95973 15.8789 10 15.9577V2.04204C8.95581 2.12072 7.75414 2.29918 6.69569 2.48497C5.99586 2.60781 5.37542 2.73077 4.93012 2.823C4.70765 2.86907 4.52935 2.90738 4.40723 2.93404C4.34618 2.94737 4.29921 2.95778 4.26782 2.96479L4.23262 2.97268L4.22224 2.97502C4.04385 3.01561 3.85736 3.00656 3.6838 2.94871L2.58117 2.58117L2.94871 3.6838C3.01585 3.88523 3.0171 4.10293 2.95234 4.30514ZM15.2992 15.515C14.2405 15.7007 13.0403 15.8789 12 15.9577V2.04203C13.0442 2.12071 14.2459 2.29918 15.3044 2.48497C16.0042 2.60781 16.6246 2.73077 17.0699 2.823C17.2924 2.86907 17.4707 2.90738 17.5928 2.93404C17.6539 2.94737 17.7008 2.95778 17.7322 2.96479L17.7674 2.97268L17.7782 2.97511C17.9566 3.0157 18.1427 3.00656 18.3163 2.94871L19.4189 2.58117L19.0513 3.6838C18.9844 3.88466 18.983 4.10171 19.0472 4.30346L19.0492 4.30992L19.0567 4.33383C19.0635 4.35542 19.0736 4.3881 19.0866 4.43078C19.1127 4.51619 19.1504 4.64149 19.1958 4.79813C19.2867 5.1119 19.408 5.5489 19.5289 6.04121C19.7775 7.05311 20 8.20106 20 9.00003C20 9.79899 19.7775 10.9469 19.5289 11.9588C19.408 12.4512 19.2867 12.8882 19.1958 13.2019C19.1504 13.3586 19.1127 13.4839 19.0866 13.5693C19.0736 13.612 19.0635 13.6446 19.0567 13.6662L19.0492 13.6901L19.0471 13.6967C18.9829 13.8985 18.9844 14.1154 19.0513 14.3163L19.4189 15.4189L18.3163 15.0513C18.1429 14.9936 17.9567 14.9845 17.7785 15.0249L17.7681 15.0272L17.7327 15.0351L17.6523 15.0529L17.5928 15.0659C17.4703 15.0926 17.2915 15.1309 17.0684 15.177C16.6219 15.2692 16 15.3922 15.2992 15.515Z" fill="#7F713E"/>
</svg>
