<svg width="22" height="22" viewBox="0 0 22 22" fill="none" xmlns="http://www.w3.org/2000/svg">
<path d="M5 4C4.44772 4 4 4.44772 4 5V5.5C4 6.05228 4.44772 6.5 5 6.5C5.40555 6.5 5.75471 6.25858 5.91162 5.91162C6.25858 5.75471 6.5 5.40555 6.5 5C6.5 4.44772 6.05229 4 5.5 4H5Z" fill="#7F713E"/>
<path d="M8.5 4C7.94772 4 7.5 4.44772 7.5 5C7.5 5.55228 7.94772 6 8.5 6H9.5C10.0523 6 10.5 5.55228 10.5 5C10.5 4.44772 10.0523 4 9.5 4H8.5Z" fill="#7F713E"/>
<path d="M12.5 4C11.9477 4 11.5 4.44772 11.5 5C11.5 5.55228 11.9477 6 12.5 6H13.5C14.0523 6 14.5 5.55228 14.5 5C14.5 4.44772 14.0523 4 13.5 4H12.5Z" fill="#7F713E"/>
<path d="M16.5 4C15.9477 4 15.5 4.44772 15.5 5C15.5 5.40555 15.7414 5.75471 16.0884 5.91162C16.2453 6.25858 16.5944 6.5 17 6.5C17.5523 6.5 18 6.05229 18 5.5V5C18 4.44772 17.5523 4 17 4H16.5Z" fill="#7F713E"/>
<path d="M6 8.5C6 7.94771 5.55228 7.5 5 7.5C4.44772 7.5 4 7.94771 4 8.5V9.5C4 10.0523 4.44772 10.5 5 10.5C5.55228 10.5 6 10.0523 6 9.5V8.5Z" fill="#7F713E"/>
<path d="M18 8.5C18 7.94772 17.5523 7.5 17 7.5C16.4477 7.5 16 7.94772 16 8.5V9.5C16 10.0523 16.4477 10.5 17 10.5C17.5523 10.5 18 10.0523 18 9.5V8.5Z" fill="#7F713E"/>
<path d="M6 12.5C6 11.9477 5.55228 11.5 5 11.5C4.44772 11.5 4 11.9477 4 12.5V13.5C4 14.0523 4.44772 14.5 5 14.5C5.55228 14.5 6 14.0523 6 13.5V12.5Z" fill="#7F713E"/>
<path d="M18 12.5C18 11.9477 17.5523 11.5 17 11.5C16.4477 11.5 16 11.9477 16 12.5V13.5C16 14.0523 16.4477 14.5 17 14.5C17.5523 14.5 18 14.0523 18 13.5V12.5Z" fill="#7F713E"/>
<path d="M5 15.5C5.40555 15.5 5.75471 15.7414 5.91162 16.0884C6.25858 16.2453 6.5 16.5944 6.5 17C6.5 17.5523 6.05228 18 5.5 18H5C4.44772 18 4 17.5523 4 17V16.5C4 15.9477 4.44772 15.5 5 15.5Z" fill="#7F713E"/>
<path d="M18 16.5C18 15.9477 17.5523 15.5 17 15.5C16.5944 15.5 16.2453 15.7414 16.0884 16.0884C15.7414 16.2453 15.5 16.5944 15.5 17C15.5 17.5523 15.9477 18 16.5 18H17C17.5523 18 18 17.5523 18 17V16.5Z" fill="#7F713E"/>
<path d="M8.5 16C7.94771 16 7.5 16.4477 7.5 17C7.5 17.5523 7.94771 18 8.5 18H9.5C10.0523 18 10.5 17.5523 10.5 17C10.5 16.4477 10.0523 16 9.5 16H8.5Z" fill="#7F713E"/>
<path d="M12.5 16C11.9477 16 11.5 16.4477 11.5 17C11.5 17.5523 11.9477 18 12.5 18H13.5C14.0523 18 14.5 17.5523 14.5 17C14.5 16.4477 14.0523 16 13.5 16H12.5Z" fill="#7F713E"/>
<path fill-rule="evenodd" clip-rule="evenodd" d="M1 0C0.447715 0 0 0.447715 0 1V21C0 21.5523 0.447715 22 1 22H21C21.5523 22 22 21.5523 22 21V1C22 0.447715 21.5523 0 21 0H1ZM2 20V2H20V20H2Z" fill="#7F713E"/>
</svg>
