<svg width="20" height="21" viewBox="0 0 20 21" fill="none" xmlns="http://www.w3.org/2000/svg">
<path fill-rule="evenodd" clip-rule="evenodd" d="M13 0C12.4477 0 12 0.447715 12 1H8C8 0.447715 7.55228 0 7 0H5C4.44772 0 4 0.447715 4 1H3C1.34315 1 0 2.34315 0 4V18C0 19.6569 1.34315 21 3 21H17C18.6569 21 20 19.6569 20 18V4C20 2.34315 18.6569 1 17 1H16C16 0.447715 15.5523 0 15 0H13ZM3 3C2.44772 3 2 3.44772 2 4V5H18V4C18 3.44772 17.5523 3 17 3H3ZM2 18V7H18V18C18 18.5523 17.5523 19 17 19H3C2.44772 19 2 18.5523 2 18ZM3.5 10C3.5 9.44771 3.94772 9 4.5 9H5.5C6.05228 9 6.5 9.44772 6.5 10V11C6.5 11.5523 6.05228 12 5.5 12H4.5C3.94772 12 3.5 11.5523 3.5 11V10ZM3.5 15C3.5 14.4477 3.94772 14 4.5 14H5.5C6.05228 14 6.5 14.4477 6.5 15V16C6.5 16.5523 6.05228 17 5.5 17H4.5C3.94772 17 3.5 16.5523 3.5 16V15ZM8.5 10C8.5 9.44771 8.94772 9 9.5 9H10.5C11.0523 9 11.5 9.44772 11.5 10V11C11.5 11.5523 11.0523 12 10.5 12H9.5C8.94772 12 8.5 11.5523 8.5 11V10ZM8.5 15C8.5 14.4477 8.94772 14 9.5 14H10.5C11.0523 14 11.5 14.4477 11.5 15V16C11.5 16.5523 11.0523 17 10.5 17H9.5C8.94772 17 8.5 16.5523 8.5 16V15ZM13.5 10C13.5 9.44771 13.9477 9 14.5 9H15.5C16.0523 9 16.5 9.44772 16.5 10V11C16.5 11.5523 16.0523 12 15.5 12H14.5C13.9477 12 13.5 11.5523 13.5 11V10ZM13.5 15C13.5 14.4477 13.9477 14 14.5 14H15.5C16.0523 14 16.5 14.4477 16.5 15V16C16.5 16.5523 16.0523 17 15.5 17H14.5C13.9477 17 13.5 16.5523 13.5 16V15Z" fill="#7F713E"/>
</svg>
